<?xml version="1.0" encoding="iso-8859-1"?>
<!-- Generator: Adobe Illustrator 27.2.0, SVG Export Plug-In . SVG Version: 6.00 Build 0)  -->
<svg version="1.1" baseProfile="basic" xmlns="http://www.w3.org/2000/svg" xmlns:xlink="http://www.w3.org/1999/xlink" x="0px"
	 y="0px" viewBox="0 0 64 64" xml:space="preserve">
<g id="Layer_1">
</g>
<g id="Layer_2">
</g>
<g id="&#x421;&#x43B;&#x43E;&#x439;_1">
</g>
<g id="&#x421;&#x43B;&#x43E;&#x439;_4">
	<g>
		<g>
			<g>
				<g>
					<path d="M43,42c-0.552,0-1,0.448-1,1v2c0,0.552,0.448,1,1,1s1-0.448,1-1v-2C44,42.448,43.552,42,43,42z M48,46
						c0.552,0,1-0.448,1-1v-2c0-0.552-0.448-1-1-1s-1,0.448-1,1v2C47,45.552,47.448,46,48,46z M28,42c-0.552,0-1,0.448-1,1v2
						c0,0.552,0.448,1,1,1c0.552,0,1-0.448,1-1v-2C29,42.448,28.552,42,28,42z M23,42c-0.552,0-1,0.448-1,1v2c0,0.552,0.448,1,1,1
						s1-0.448,1-1v-2C24,42.448,23.552,42,23,42z M18,42c-0.552,0-1,0.448-1,1v2c0,0.552,0.448,1,1,1s1-0.448,1-1v-2
						C19,42.448,18.552,42,18,42z M13,42c-0.552,0-1,0.448-1,1v2c0,0.552,0.448,1,1,1s1-0.448,1-1v-2C14,42.448,13.552,42,13,42z
						 M8,46c0.552,0,1-0.448,1-1v-2c0-0.552-0.448-1-1-1s-1,0.448-1,1v2C7,45.552,7.448,46,8,46z M38,42c-0.552,0-1,0.448-1,1v2
						c0,0.552,0.448,1,1,1s1-0.448,1-1v-2C39,42.448,38.552,42,38,42z M33,42c-0.552,0-1,0.448-1,1v2c0,0.552,0.448,1,1,1
						s1-0.448,1-1v-2C34,42.448,33.552,42,33,42z"/>
				</g>
			</g>
		</g>
	</g>
	<g>
		<path d="M20,38h-9c-0.397,0-0.758-0.235-0.917-0.601c-0.158-0.364-0.086-0.789,0.185-1.08l8.25-8.875
			c0.378-0.404,1.011-0.426,1.413-0.052c0.404,0.376,0.428,1.009,0.052,1.413L13.295,36h6.291l2.707-2.707
			C23.586,32,25.277,32,26,32h16c0.553,0,1,0.447,1,1s-0.447,1-1,1H26c-0.593,0-1.586,0-2.293,0.707l-3,3
			C20.52,37.895,20.266,38,20,38z"/>
	</g>
	<g>
		<path d="M11,38H1c-0.399,0-0.76-0.237-0.918-0.604s-0.084-0.791,0.189-1.082l12.986-13.799C16.006,19.598,19.14,19,23,19h29
			c0.381,0,0.729,0.217,0.897,0.559s0.127,0.75-0.105,1.052l-4.625,6C47.978,26.856,47.686,27,47.375,27H24
			c-1.873,0-2.318,0-4.021,1.811l-8.246,8.87C11.543,37.885,11.278,38,11,38z M3.314,36h7.25l7.953-8.556
			C20.729,25.094,21.736,25,24,25h22.883l3.084-4H23c-4.059,0-6.304,0.782-8.285,2.887L3.314,36z"/>
	</g>
	<g>
		<path d="M50,38H39c-0.381,0-0.728-0.216-0.896-0.557c-0.169-0.342-0.129-0.749,0.103-1.051l13-17C51.395,19.146,51.688,19,52,19
			h11c0.381,0,0.728,0.216,0.896,0.557c0.169,0.342,0.129,0.749-0.103,1.051l-13,17C50.605,37.854,50.312,38,50,38z M41.023,36
			h8.482l11.471-15h-8.482L41.023,36z"/>
	</g>
</g>
</svg>